<svg id="Capa_1" enable-background="new 0 0 512.002 512.002" height="512" viewBox="0 0 512.002 512.002" width="512" xmlns="http://www.w3.org/2000/svg"><g><path d="m103.531 114.503c-6.93-6.934-18.378-6.294-24.458 1.363-71.251 89.737-63.798 218.591 17.337 299.726 43.866 43.866 101.669 66.191 159.708 66.191 49.313 0 98.797-16.125 140.019-48.854 7.661-6.083 8.292-17.531 1.363-24.457-10.544-10.544-279.28-279.28-293.969-293.969zm159.97 193.601c0-3.662.592-7.257 1.741-10.676l24.554 24.554c-.062 0-.125 0-.188 0h-26.107zm-74.928-87.345 38.524 38.525h-4.703c-18.649 0-33.821-15.172-33.821-33.821zm0 53.524h26.107c18.648 0 33.82 15.172 33.82 33.821v13.878h-26.106c-18.649 0-33.821-15.172-33.821-33.821zm0 62.699h26.107c18.648 0 33.82 15.172 33.82 33.821v13.878h-26.106c-18.649 0-33.821-15.172-33.821-33.821zm198.236 84.2c-83.765 66.509-204.05 59.546-279.791-16.197-75.743-75.743-82.706-196.027-16.196-279.792.517-.652 1.51-.679 2.103-.084l81.091 81.092c-.284 1.07-.442 2.18-.442 3.314v15.947c0 13.121 5.212 25.04 13.663 33.821h-.732c-7.13 0-12.931 5.8-12.931 12.93v15.948c0 13.12 5.212 25.039 13.663 33.821h-.732c-7.13 0-12.931 5.801-12.931 12.931v15.948c0 26.92 21.901 48.821 48.821 48.821h26.106v36.084c0 4.142 3.357 7.5 7.5 7.5s7.5-3.358 7.5-7.5v-36.084h22.699c4.143 0 7.5-3.358 7.5-7.5s-3.357-7.5-7.5-7.5h-22.699v-13.878c0-18.648 15.172-33.82 33.821-33.82h7.474l18.328 18.328c-.962 7.198-4.252 13.928-9.443 19.212-2.903 2.955-2.861 7.703.094 10.606s7.704 2.861 10.605-.094c4.938-5.026 8.674-10.969 11.048-17.42l51.465 51.465c.605.602.56 1.591-.084 2.101z"/><path d="m440.565 89.456c-3.156 2.683-3.54 7.416-.857 10.572 36.946 43.471 57.294 98.864 57.294 155.973 0 132.888-108.112 241.001-241.001 241.001s-241.001-108.113-241.001-241.001 108.112-241.001 241.001-241.001c59.036 0 115.845 21.579 159.962 60.76 3.097 2.751 7.838 2.469 10.588-.627 2.751-3.097 2.47-7.837-.627-10.588-46.865-41.623-107.211-64.545-169.923-64.545-141.492 0-256.001 114.497-256.001 256.001 0 141.492 114.497 256.001 256.001 256.001 141.492 0 256.001-114.496 256.001-256.001 0-60.665-21.615-119.507-60.864-165.687-2.681-3.155-7.414-3.54-10.573-.858z"/><path d="m432.93 396.137c71.251-89.737 63.798-218.591-17.337-299.727-81.135-81.136-209.989-88.588-299.727-17.337-7.675 6.095-8.278 17.542-1.364 24.458 18.144 18.144 291.035 291.034 293.97 293.969 6.925 6.926 18.364 6.307 24.458-1.363zm-184.429-199.53h-19.708l-26.661-26.661v-9.693h20.025c14.526 0 26.344 11.818 26.344 26.344zm9.607-41.29c-1.222 1.053-2.993 1.052-4.215 0-17.779-15.328-17.761-42.824.001-58.136 1.221-1.052 2.993-1.052 4.214 0 17.78 15.328 17.763 42.825 0 58.136zm5.393 31.28c0-14.526 11.818-26.344 26.345-26.344h20.025v10.01c0 14.526-11.817 26.344-26.344 26.344h-20.026c0-3.915 0-5.995 0-10.01zm59.929 101.564c0 .991-.043 1.976-.129 2.954l-16.832-16.832h16.961zm0-62.699c0 18.041-14.199 32.828-32.009 33.773l-25.738-25.738c4.918-13.084 17.404-21.913 31.64-21.913h26.107zm2.069 33.821h-.732c8.451-8.781 13.663-20.701 13.663-33.821v-15.947c0-7.13-5.801-12.931-12.931-12.931h-10.113c5.922-7.155 9.485-16.33 9.485-26.321v-13.062c0-6.588-5.359-11.948-11.947-11.948h-23.078c-2.438 0-4.823.224-7.146.631 8.331-21.04 2.494-45.158-14.797-60.063h.001c-6.896-5.944-16.906-5.946-23.803 0-17.285 14.9-23.132 39.016-14.797 60.063-2.323-.407-4.708-.631-7.146-.631h-23.078c-5.883 0-10.774 4.278-11.756 9.884l-62.213-62.213c-.602-.602-.562-1.591.085-2.104 38.482-30.555 84.655-45.599 130.693-45.599 54.173 0 108.152 20.85 149.098 61.796 75.743 75.744 82.706 196.028 16.196 279.792-.493.62-1.473.714-2.103.084l-83.202-83.202c1.695-4.994 2.553-10.198 2.553-15.53v-15.948c-.001-7.13-5.802-12.93-12.932-12.93z"/></g></svg>